# xmcd CD database file
#
# Track frame offsets:
#	150
#	15192
#	30490
#	47197
#	63655
#	86285
#	106795
#	122770
#	138405
#	155062
#	180592
#	201042
#
# Disc length: 2930 seconds
#
# Revision: 0
# Processed by: cddbd v1.5.1PL0 Copyright (c) Steve Scherf et al.
# Submitted via: CDex 1.51
#
DISCID=940b700c
DTITLE=八神純子 - BEST SELECTION
DYEAR=1994
DGENRE=JPop
TTITLE0=思い出は美しすぎて
TTITLE1=みずいろの雨
TTITLE2=想い出のスクリーン
TTITLE3=チーター（CHEATER）
TTITLE4=COMMUNICATION
TTITLE5=カシミヤのほほえみ
TTITLE6=ベイビースターの悲劇
TTITLE7=邪魔しないで
TTITLE8=摩天楼のハリケーン
TTITLE9=素敵ダウンタウン ジミー
TTITLE10=FUN CITY
TTITLE11=カメレオン
EXTD=YEAR: 1994
EXTT0=
EXTT1=
EXTT2=
EXTT3=
EXTT4=
EXTT5=
EXTT6=
EXTT7=
EXTT8=
EXTT9=
EXTT10=
EXTT11=
PLAYORDER=
